<?xml version="1.0" encoding="UTF-8" standalone="no"?><!DOCTYPE svg PUBLIC "-//W3C//DTD SVG 1.1//EN" "http://www.w3.org/Graphics/SVG/1.1/DTD/svg11.dtd"><svg width="100%" height="100%" viewBox="0 0 398 55" version="1.1" xmlns="http://www.w3.org/2000/svg" xmlns:xlink="http://www.w3.org/1999/xlink" xml:space="preserve" xmlns:serif="http://www.serif.com/" style="fill-rule:evenodd;clip-rule:evenodd;stroke-linejoin:round;stroke-miterlimit:2;"><g><path d="M373.808,39.857c-1.5,0 -2.883,-0.266 -4.15,-0.8c-1.267,-0.533 -2.283,-1.383 -3.05,-2.55c-0.767,-1.166 -1.15,-2.683 -1.15,-4.55c0,-2.666 0.842,-4.683 2.525,-6.05c1.683,-1.366 4.275,-2.05 7.775,-2.05l5.3,0l0,-0.25c0,-0.366 -0.35,-0.691 -1.05,-0.975c-0.7,-0.283 -1.767,-0.425 -3.2,-0.425c-1.267,0 -2.642,0.109 -4.125,0.325c-1.483,0.217 -2.892,0.525 -4.225,0.925l0,-6.5c1.3,-0.566 2.958,-1.008 4.975,-1.325c2.017,-0.316 3.942,-0.475 5.775,-0.475c2.633,0 4.95,0.359 6.95,1.075c2,0.717 3.567,1.817 4.7,3.3c1.133,1.484 1.7,3.375 1.7,5.675l0,14.15l-10.6,0l-0.5,-1.7c-0.8,0.634 -1.825,1.159 -3.075,1.575c-1.25,0.417 -2.775,0.625 -4.575,0.625Zm4.55,-6.6c0.633,0 1.158,-0.1 1.575,-0.3c0.417,-0.2 0.792,-0.466 1.125,-0.8l0,-2.2l-2.2,0c-1.5,0 -2.25,0.55 -2.25,1.65c0,1.1 0.583,1.65 1.75,1.65Z" style="fill:none;fill-rule:nonzero;stroke:#fff;stroke-width:7.5px;"/><path d="M373.808,39.857c-1.5,0 -2.883,-0.266 -4.15,-0.8c-1.267,-0.533 -2.283,-1.383 -3.05,-2.55c-0.767,-1.166 -1.15,-2.683 -1.15,-4.55c0,-2.666 0.842,-4.683 2.525,-6.05c1.683,-1.366 4.275,-2.05 7.775,-2.05l5.3,0l0,-0.25c0,-0.366 -0.35,-0.691 -1.05,-0.975c-0.7,-0.283 -1.767,-0.425 -3.2,-0.425c-1.267,0 -2.642,0.109 -4.125,0.325c-1.483,0.217 -2.892,0.525 -4.225,0.925l0,-6.5c1.3,-0.566 2.958,-1.008 4.975,-1.325c2.017,-0.316 3.942,-0.475 5.775,-0.475c2.633,0 4.95,0.359 6.95,1.075c2,0.717 3.567,1.817 4.7,3.3c1.133,1.484 1.7,3.375 1.7,5.675l0,14.15l-10.6,0l-0.5,-1.7c-0.8,0.634 -1.825,1.159 -3.075,1.575c-1.25,0.417 -2.775,0.625 -4.575,0.625Zm4.55,-6.6c0.633,0 1.158,-0.1 1.575,-0.3c0.417,-0.2 0.792,-0.466 1.125,-0.8l0,-2.2l-2.2,0c-1.5,0 -2.25,0.55 -2.25,1.65c0,1.1 0.583,1.65 1.75,1.65Z" style="fill:#771710;fill-rule:nonzero;"/><path d="M300.408,13.707l0,-8.35l12.95,0l0,8.35l-12.95,0Zm0.85,25.65l0,-15l-3.3,0l1,-8.7l14.4,0l0,23.7l-12.1,0Z" style="fill:none;fill-rule:nonzero;stroke:#fff;stroke-width:7.5px;"/><path d="M300.408,13.707l0,-8.35l12.95,0l0,8.35l-12.95,0Zm0.85,25.65l0,-15l-3.3,0l1,-8.7l14.4,0l0,23.7l-12.1,0Z" style="fill:#771710;fill-rule:nonzero;"/><path d="M341.158,39.357l0,-6.35l7.95,-8.1l-7.7,0l0,-9.25l23.15,0l0,7l-7.55,8l7.95,0l0,8.7l-23.8,0Z" style="fill:none;fill-rule:nonzero;stroke:#fff;stroke-width:7.5px;"/><path d="M341.158,39.357l0,-6.35l7.95,-8.1l-7.7,0l0,-9.25l23.15,0l0,7l-7.55,8l7.95,0l0,8.7l-23.8,0Z" style="fill:#771710;fill-rule:nonzero;"/><path d="M315.858,39.357l0,-6.35l7.95,-8.1l-7.7,0l0,-9.25l23.15,0l0,7l-7.55,8l7.95,0l0,8.7l-23.8,0Z" style="fill:none;fill-rule:nonzero;stroke:#fff;stroke-width:7.5px;"/><path d="M315.858,39.357l0,-6.35l7.95,-8.1l-7.7,0l0,-9.25l23.15,0l0,7l-7.55,8l7.95,0l0,8.7l-23.8,0Z" style="fill:#771710;fill-rule:nonzero;"/><path d="M266.658,39.357l0,-32.2l18.1,0c2.767,0 5.05,0.567 6.85,1.7c1.8,1.134 3.142,2.65 4.025,4.55c0.883,1.9 1.325,4 1.325,6.3c0,2.334 -0.508,4.442 -1.525,6.325c-1.017,1.884 -2.45,3.375 -4.3,4.475c-1.85,1.1 -4.042,1.65 -6.575,1.65l-5.8,0l0,7.2l-12.1,0Zm12.1,-16.65l2.95,0c0.967,0 1.7,-0.266 2.2,-0.8c0.5,-0.533 0.75,-1.266 0.75,-2.2c0,-2.066 -0.917,-3.1 -2.75,-3.1l-3.15,0l0,6.1Z" style="fill:none;fill-rule:nonzero;stroke:#fff;stroke-width:7.5px;"/><path d="M266.658,39.357l0,-32.2l18.1,0c2.767,0 5.05,0.567 6.85,1.7c1.8,1.134 3.142,2.65 4.025,4.55c0.883,1.9 1.325,4 1.325,6.3c0,2.334 -0.508,4.442 -1.525,6.325c-1.017,1.884 -2.45,3.375 -4.3,4.475c-1.85,1.1 -4.042,1.65 -6.575,1.65l-5.8,0l0,7.2l-12.1,0Zm12.1,-16.65l2.95,0c0.967,0 1.7,-0.266 2.2,-0.8c0.5,-0.533 0.75,-1.266 0.75,-2.2c0,-2.066 -0.917,-3.1 -2.75,-3.1l-3.15,0l0,6.1Z" style="fill:#771710;fill-rule:nonzero;"/><path d="M241.758,39.857c-2.267,0 -4.4,-0.166 -6.4,-0.5c-2,-0.333 -3.533,-0.733 -4.6,-1.2l0,-7.65c0.8,0.4 1.733,0.75 2.8,1.05c1.067,0.3 2.125,0.534 3.175,0.7c1.05,0.167 1.925,0.25 2.625,0.25c0.767,0 1.408,-0.016 1.925,-0.05c0.517,-0.033 0.775,-0.2 0.775,-0.5c0,-0.266 -0.267,-0.483 -0.8,-0.65c-0.533,-0.166 -1.208,-0.35 -2.025,-0.55c-0.817,-0.2 -1.658,-0.45 -2.525,-0.75c-2.167,-0.8 -3.733,-1.708 -4.7,-2.725c-0.967,-1.016 -1.45,-2.475 -1.45,-4.375c0,-2.533 1.05,-4.458 3.15,-5.775c2.1,-1.316 5.317,-1.975 9.65,-1.975c1.067,0 2.233,0.059 3.5,0.175c1.267,0.117 2.458,0.259 3.575,0.425c1.117,0.167 2.008,0.367 2.675,0.6l0,7.6c-1.067,-0.466 -2.217,-0.825 -3.45,-1.075c-1.233,-0.25 -2.317,-0.375 -3.25,-0.375c-0.467,0 -0.975,0.009 -1.525,0.025c-0.55,0.017 -1.017,0.067 -1.4,0.15c-0.383,0.084 -0.575,0.242 -0.575,0.475c0,0.334 0.508,0.592 1.525,0.775c1.017,0.184 2.142,0.459 3.375,0.825c1.733,0.5 3.075,1.059 4.025,1.675c0.95,0.617 1.617,1.367 2,2.25c0.383,0.884 0.575,1.975 0.575,3.275c0,2.434 -1.067,4.359 -3.2,5.775c-2.133,1.417 -5.283,2.125 -9.45,2.125Z" style="fill:none;fill-rule:nonzero;stroke:#fff;stroke-width:7.5px;"/><path d="M241.758,39.857c-2.267,0 -4.4,-0.166 -6.4,-0.5c-2,-0.333 -3.533,-0.733 -4.6,-1.2l0,-7.65c0.8,0.4 1.733,0.75 2.8,1.05c1.067,0.3 2.125,0.534 3.175,0.7c1.05,0.167 1.925,0.25 2.625,0.25c0.767,0 1.408,-0.016 1.925,-0.05c0.517,-0.033 0.775,-0.2 0.775,-0.5c0,-0.266 -0.267,-0.483 -0.8,-0.65c-0.533,-0.166 -1.208,-0.35 -2.025,-0.55c-0.817,-0.2 -1.658,-0.45 -2.525,-0.75c-2.167,-0.8 -3.733,-1.708 -4.7,-2.725c-0.967,-1.016 -1.45,-2.475 -1.45,-4.375c0,-2.533 1.05,-4.458 3.15,-5.775c2.1,-1.316 5.317,-1.975 9.65,-1.975c1.067,0 2.233,0.059 3.5,0.175c1.267,0.117 2.458,0.259 3.575,0.425c1.117,0.167 2.008,0.367 2.675,0.6l0,7.6c-1.067,-0.466 -2.217,-0.825 -3.45,-1.075c-1.233,-0.25 -2.317,-0.375 -3.25,-0.375c-0.467,0 -0.975,0.009 -1.525,0.025c-0.55,0.017 -1.017,0.067 -1.4,0.15c-0.383,0.084 -0.575,0.242 -0.575,0.475c0,0.334 0.508,0.592 1.525,0.775c1.017,0.184 2.142,0.459 3.375,0.825c1.733,0.5 3.075,1.059 4.025,1.675c0.95,0.617 1.617,1.367 2,2.25c0.383,0.884 0.575,1.975 0.575,3.275c0,2.434 -1.067,4.359 -3.2,5.775c-2.133,1.417 -5.283,2.125 -9.45,2.125Z" style="fill:#771710;fill-rule:nonzero;"/><path d="M217.958,19.307l3.4,-12.65l9.95,0l-4.3,12.65l-9.05,0Z" style="fill:none;fill-rule:nonzero;stroke:#fff;stroke-width:7.5px;"/><path d="M217.958,19.307l3.4,-12.65l9.95,0l-4.3,12.65l-9.05,0Z" style="fill:#771710;fill-rule:nonzero;"/><path d="M204.358,39.857c-2.8,0 -5.308,-0.466 -7.525,-1.4c-2.217,-0.933 -3.975,-2.308 -5.275,-4.125c-1.3,-1.816 -1.95,-4.058 -1.95,-6.725c0,-3.766 1.125,-6.783 3.375,-9.05c2.25,-2.266 5.608,-3.4 10.075,-3.4c4.067,0 7.317,1 9.75,3c2.433,2 3.65,4.85 3.65,8.55l0,4.05l-15.8,0c0.5,0.634 1.325,1.125 2.475,1.475c1.15,0.35 2.642,0.525 4.475,0.525c1.5,0 2.95,-0.125 4.35,-0.375c1.4,-0.25 2.5,-0.525 3.3,-0.825l0,6.5c-2.5,1.2 -6.133,1.8 -10.9,1.8Zm-3.7,-15.15l5.45,0l0,-0.45c0,-0.466 -0.183,-0.908 -0.55,-1.325c-0.367,-0.416 -1.067,-0.625 -2.1,-0.625c-1,0 -1.717,0.234 -2.15,0.7c-0.433,0.467 -0.65,1.034 -0.65,1.7Z" style="fill:none;fill-rule:nonzero;stroke:#fff;stroke-width:7.5px;"/><path d="M204.358,39.857c-2.8,0 -5.308,-0.466 -7.525,-1.4c-2.217,-0.933 -3.975,-2.308 -5.275,-4.125c-1.3,-1.816 -1.95,-4.058 -1.95,-6.725c0,-3.766 1.125,-6.783 3.375,-9.05c2.25,-2.266 5.608,-3.4 10.075,-3.4c4.067,0 7.317,1 9.75,3c2.433,2 3.65,4.85 3.65,8.55l0,4.05l-15.8,0c0.5,0.634 1.325,1.125 2.475,1.475c1.15,0.35 2.642,0.525 4.475,0.525c1.5,0 2.95,-0.125 4.35,-0.375c1.4,-0.25 2.5,-0.525 3.3,-0.825l0,6.5c-2.5,1.2 -6.133,1.8 -10.9,1.8Zm-3.7,-15.15l5.45,0l0,-0.45c0,-0.466 -0.183,-0.908 -0.55,-1.325c-0.367,-0.416 -1.067,-0.625 -2.1,-0.625c-1,0 -1.717,0.234 -2.15,0.7c-0.433,0.467 -0.65,1.034 -0.65,1.7Z" style="fill:#771710;fill-rule:nonzero;"/><path d="M173.158,39.857c-5.033,0 -8.775,-1.033 -11.225,-3.1c-2.45,-2.066 -3.675,-5.15 -3.675,-9.25c0,-4.1 1.225,-7.183 3.675,-9.25c2.45,-2.066 6.192,-3.1 11.225,-3.1c9.967,0 14.95,4.117 14.95,12.35c0,8.234 -4.983,12.35 -14.95,12.35Zm0,-8.65c0.867,0 1.517,-0.266 1.95,-0.8c0.433,-0.533 0.65,-1.5 0.65,-2.9c0,-1.4 -0.217,-2.366 -0.65,-2.9c-0.433,-0.533 -1.083,-0.8 -1.95,-0.8c-0.833,0 -1.467,0.267 -1.9,0.8c-0.433,0.534 -0.65,1.5 -0.65,2.9c0,1.4 0.217,2.367 0.65,2.9c0.433,0.534 1.067,0.8 1.9,0.8Z" style="fill:none;fill-rule:nonzero;stroke:#fff;stroke-width:7.5px;"/><path d="M173.158,39.857c-5.033,0 -8.775,-1.033 -11.225,-3.1c-2.45,-2.066 -3.675,-5.15 -3.675,-9.25c0,-4.1 1.225,-7.183 3.675,-9.25c2.45,-2.066 6.192,-3.1 11.225,-3.1c9.967,0 14.95,4.117 14.95,12.35c0,8.234 -4.983,12.35 -14.95,12.35Zm0,-8.65c0.867,0 1.517,-0.266 1.95,-0.8c0.433,-0.533 0.65,-1.5 0.65,-2.9c0,-1.4 -0.217,-2.366 -0.65,-2.9c-0.433,-0.533 -1.083,-0.8 -1.95,-0.8c-0.833,0 -1.467,0.267 -1.9,0.8c-0.433,0.534 -0.65,1.5 -0.65,2.9c0,1.4 0.217,2.367 0.65,2.9c0.433,0.534 1.067,0.8 1.9,0.8Z" style="fill:#771710;fill-rule:nonzero;"/><path d="M142.258,39.857c-1.433,0 -2.817,-0.083 -4.15,-0.25c-1.333,-0.166 -2.65,-0.466 -3.95,-0.9l0,-10.05c0.833,0.334 1.733,0.575 2.7,0.725c0.967,0.15 1.933,0.225 2.9,0.225c1.5,0 2.567,-0.3 3.2,-0.9c0.633,-0.6 0.95,-1.633 0.95,-3.1l0,-18.45l12.1,0l0,21.4c0,3.767 -1.183,6.592 -3.55,8.475c-2.367,1.884 -5.767,2.825 -10.2,2.825Z" style="fill:none;fill-rule:nonzero;stroke:#fff;stroke-width:7.5px;"/><path d="M142.258,39.857c-1.433,0 -2.817,-0.083 -4.15,-0.25c-1.333,-0.166 -2.65,-0.466 -3.95,-0.9l0,-10.05c0.833,0.334 1.733,0.575 2.7,0.725c0.967,0.15 1.933,0.225 2.9,0.225c1.5,0 2.567,-0.3 3.2,-0.9c0.633,-0.6 0.95,-1.633 0.95,-3.1l0,-18.45l12.1,0l0,21.4c0,3.767 -1.183,6.592 -3.55,8.475c-2.367,1.884 -5.767,2.825 -10.2,2.825Z" style="fill:#771710;fill-rule:nonzero;"/><path d="M104.158,39.857c-1.5,0 -2.883,-0.266 -4.15,-0.8c-1.267,-0.533 -2.283,-1.383 -3.05,-2.55c-0.767,-1.166 -1.15,-2.683 -1.15,-4.55c0,-2.666 0.842,-4.683 2.525,-6.05c1.683,-1.366 4.275,-2.05 7.775,-2.05l5.3,0l0,-0.25c0,-0.366 -0.35,-0.691 -1.05,-0.975c-0.7,-0.283 -1.767,-0.425 -3.2,-0.425c-1.267,0 -2.642,0.109 -4.125,0.325c-1.483,0.217 -2.892,0.525 -4.225,0.925l0,-6.5c1.3,-0.566 2.958,-1.008 4.975,-1.325c2.017,-0.316 3.942,-0.475 5.775,-0.475c2.633,0 4.95,0.359 6.95,1.075c2,0.717 3.567,1.817 4.7,3.3c1.133,1.484 1.7,3.375 1.7,5.675l0,14.15l-10.6,0l-0.5,-1.7c-0.8,0.634 -1.825,1.159 -3.075,1.575c-1.25,0.417 -2.775,0.625 -4.575,0.625Zm4.55,-6.6c0.633,0 1.158,-0.1 1.575,-0.3c0.417,-0.2 0.792,-0.466 1.125,-0.8l0,-2.2l-2.2,0c-1.5,0 -2.25,0.55 -2.25,1.65c0,1.1 0.583,1.65 1.75,1.65Z" style="fill:none;fill-rule:nonzero;stroke:#fff;stroke-width:7.5px;"/><path d="M104.158,39.857c-1.5,0 -2.883,-0.266 -4.15,-0.8c-1.267,-0.533 -2.283,-1.383 -3.05,-2.55c-0.767,-1.166 -1.15,-2.683 -1.15,-4.55c0,-2.666 0.842,-4.683 2.525,-6.05c1.683,-1.366 4.275,-2.05 7.775,-2.05l5.3,0l0,-0.25c0,-0.366 -0.35,-0.691 -1.05,-0.975c-0.7,-0.283 -1.767,-0.425 -3.2,-0.425c-1.267,0 -2.642,0.109 -4.125,0.325c-1.483,0.217 -2.892,0.525 -4.225,0.925l0,-6.5c1.3,-0.566 2.958,-1.008 4.975,-1.325c2.017,-0.316 3.942,-0.475 5.775,-0.475c2.633,0 4.95,0.359 6.95,1.075c2,0.717 3.567,1.817 4.7,3.3c1.133,1.484 1.7,3.375 1.7,5.675l0,14.15l-10.6,0l-0.5,-1.7c-0.8,0.634 -1.825,1.159 -3.075,1.575c-1.25,0.417 -2.775,0.625 -4.575,0.625Zm4.55,-6.6c0.633,0 1.158,-0.1 1.575,-0.3c0.417,-0.2 0.792,-0.466 1.125,-0.8l0,-2.2l-2.2,0c-1.5,0 -2.25,0.55 -2.25,1.65c0,1.1 0.583,1.65 1.75,1.65Z" style="fill:#771710;fill-rule:nonzero;"/><path d="M65.408,49.357l0,-33.7l10.5,0l0.55,1.55c0.867,-0.633 1.833,-1.133 2.9,-1.5c1.067,-0.366 2.317,-0.55 3.75,-0.55c3.567,0 6.325,0.95 8.275,2.85c1.95,1.9 2.925,4.967 2.925,9.2c0,4.234 -1.025,7.4 -3.075,9.5c-2.05,2.1 -4.908,3.15 -8.575,3.15c-0.867,0 -1.783,-0.091 -2.75,-0.275c-0.967,-0.183 -1.767,-0.391 -2.4,-0.625l0,10.4l-12.1,0Zm14.2,-18.15c0.733,0 1.308,-0.283 1.725,-0.85c0.417,-0.566 0.625,-1.566 0.625,-3c0,-1.433 -0.208,-2.383 -0.625,-2.85c-0.417,-0.466 -0.992,-0.7 -1.725,-0.7c-0.433,0 -0.808,0.059 -1.125,0.175c-0.317,0.117 -0.642,0.309 -0.975,0.575l0,5.9c0.6,0.5 1.3,0.75 2.1,0.75Z" style="fill:none;fill-rule:nonzero;stroke:#fff;stroke-width:7.5px;"/><path d="M65.408,49.357l0,-33.7l10.5,0l0.55,1.55c0.867,-0.633 1.833,-1.133 2.9,-1.5c1.067,-0.366 2.317,-0.55 3.75,-0.55c3.567,0 6.325,0.95 8.275,2.85c1.95,1.9 2.925,4.967 2.925,9.2c0,4.234 -1.025,7.4 -3.075,9.5c-2.05,2.1 -4.908,3.15 -8.575,3.15c-0.867,0 -1.783,-0.091 -2.75,-0.275c-0.967,-0.183 -1.767,-0.391 -2.4,-0.625l0,10.4l-12.1,0Zm14.2,-18.15c0.733,0 1.308,-0.283 1.725,-0.85c0.417,-0.566 0.625,-1.566 0.625,-3c0,-1.433 -0.208,-2.383 -0.625,-2.85c-0.417,-0.466 -0.992,-0.7 -1.725,-0.7c-0.433,0 -0.808,0.059 -1.125,0.175c-0.317,0.117 -0.642,0.309 -0.975,0.575l0,5.9c0.6,0.5 1.3,0.75 2.1,0.75Z" style="fill:#771710;fill-rule:nonzero;"/><path d="M43.408,39.857c-1.5,0 -2.883,-0.266 -4.15,-0.8c-1.267,-0.533 -2.283,-1.383 -3.05,-2.55c-0.767,-1.166 -1.15,-2.683 -1.15,-4.55c0,-2.666 0.842,-4.683 2.525,-6.05c1.683,-1.366 4.275,-2.05 7.775,-2.05l5.3,0l0,-0.25c0,-0.366 -0.35,-0.691 -1.05,-0.975c-0.7,-0.283 -1.767,-0.425 -3.2,-0.425c-1.267,0 -2.642,0.109 -4.125,0.325c-1.483,0.217 -2.892,0.525 -4.225,0.925l0,-6.5c1.3,-0.566 2.958,-1.008 4.975,-1.325c2.017,-0.316 3.942,-0.475 5.775,-0.475c2.633,0 4.95,0.359 6.95,1.075c2,0.717 3.567,1.817 4.7,3.3c1.133,1.484 1.7,3.375 1.7,5.675l0,14.15l-10.6,0l-0.5,-1.7c-0.8,0.634 -1.825,1.159 -3.075,1.575c-1.25,0.417 -2.775,0.625 -4.575,0.625Zm4.55,-6.6c0.633,0 1.158,-0.1 1.575,-0.3c0.417,-0.2 0.792,-0.466 1.125,-0.8l0,-2.2l-2.2,0c-1.5,0 -2.25,0.55 -2.25,1.65c0,1.1 0.583,1.65 1.75,1.65Z" style="fill:none;fill-rule:nonzero;stroke:#fff;stroke-width:7.5px;"/><path d="M43.408,39.857c-1.5,0 -2.883,-0.266 -4.15,-0.8c-1.267,-0.533 -2.283,-1.383 -3.05,-2.55c-0.767,-1.166 -1.15,-2.683 -1.15,-4.55c0,-2.666 0.842,-4.683 2.525,-6.05c1.683,-1.366 4.275,-2.05 7.775,-2.05l5.3,0l0,-0.25c0,-0.366 -0.35,-0.691 -1.05,-0.975c-0.7,-0.283 -1.767,-0.425 -3.2,-0.425c-1.267,0 -2.642,0.109 -4.125,0.325c-1.483,0.217 -2.892,0.525 -4.225,0.925l0,-6.5c1.3,-0.566 2.958,-1.008 4.975,-1.325c2.017,-0.316 3.942,-0.475 5.775,-0.475c2.633,0 4.95,0.359 6.95,1.075c2,0.717 3.567,1.817 4.7,3.3c1.133,1.484 1.7,3.375 1.7,5.675l0,14.15l-10.6,0l-0.5,-1.7c-0.8,0.634 -1.825,1.159 -3.075,1.575c-1.25,0.417 -2.775,0.625 -4.575,0.625Zm4.55,-6.6c0.633,0 1.158,-0.1 1.575,-0.3c0.417,-0.2 0.792,-0.466 1.125,-0.8l0,-2.2l-2.2,0c-1.5,0 -2.25,0.55 -2.25,1.65c0,1.1 0.583,1.65 1.75,1.65Z" style="fill:#771710;fill-rule:nonzero;"/><path d="M5.258,39.357l0,-32.2l18.1,0c2.767,0 5.05,0.567 6.85,1.7c1.8,1.134 3.142,2.65 4.025,4.55c0.883,1.9 1.325,4 1.325,6.3c0,2.334 -0.508,4.442 -1.525,6.325c-1.017,1.884 -2.45,3.375 -4.3,4.475c-1.85,1.1 -4.042,1.65 -6.575,1.65l-5.8,0l0,7.2l-12.1,0Zm12.1,-16.65l2.95,0c0.967,0 1.7,-0.266 2.2,-0.8c0.5,-0.533 0.75,-1.266 0.75,-2.2c0,-2.066 -0.917,-3.1 -2.75,-3.1l-3.15,0l0,6.1Z" style="fill:none;fill-rule:nonzero;stroke:#fff;stroke-width:7.5px;"/><path d="M5.258,39.357l0,-32.2l18.1,0c2.767,0 5.05,0.567 6.85,1.7c1.8,1.134 3.142,2.65 4.025,4.55c0.883,1.9 1.325,4 1.325,6.3c0,2.334 -0.508,4.442 -1.525,6.325c-1.017,1.884 -2.45,3.375 -4.3,4.475c-1.85,1.1 -4.042,1.65 -6.575,1.65l-5.8,0l0,7.2l-12.1,0Zm12.1,-16.65l2.95,0c0.967,0 1.7,-0.266 2.2,-0.8c0.5,-0.533 0.75,-1.266 0.75,-2.2c0,-2.066 -0.917,-3.1 -2.75,-3.1l-3.15,0l0,6.1Z" style="fill:#771710;fill-rule:nonzero;"/></g></svg>