<?xml version="1.0" encoding="UTF-8" standalone="no"?><!DOCTYPE svg PUBLIC "-//W3C//DTD SVG 1.1//EN" "http://www.w3.org/Graphics/SVG/1.1/DTD/svg11.dtd"><svg width="100%" height="100%" viewBox="0 0 809 888" version="1.1" xmlns="http://www.w3.org/2000/svg" xmlns:xlink="http://www.w3.org/1999/xlink" xml:space="preserve" xmlns:serif="http://www.serif.com/" style="fill-rule:evenodd;clip-rule:evenodd;stroke-linecap:round;stroke-linejoin:round;stroke-miterlimit:1.5;"><g><path d="M471.712,791.321c-21.787,4.985 -44.331,8.526 -67.975,6.702c-27.386,-2.112 -54.275,-8.694 -79.031,-13.942c-35.411,-7.507 -70.815,-9.526 -100.602,-22.785c-35.138,-15.64 -67.73,-42.295 -94.456,-65.864c-18.189,-16.041 -27.341,-40.773 -43.541,-57.626c-18.293,-19.031 -33.187,-41.259 -44.86,-65.941c-11.615,-24.559 -14.806,-58.261 -20.223,-86.949c-5.333,-28.243 -12.984,-51.419 -12.651,-82.257c0.102,-9.428 3.355,-18.94 4.171,-28.17c2.703,-30.552 11.886,-59.074 19.502,-89.122c6.299,-24.854 15.019,-49.126 29.181,-73.007c12.157,-20.498 27.176,-40.767 44.324,-59.588c20.181,-22.149 42.737,-45.082 68.46,-63.466c27.757,-19.838 56.828,-45.117 89.44,-58.304c43.62,-17.639 92.192,-21.146 140.286,-23.707c11.447,-0.609 22.958,-0.802 34.38,-0.568c28.01,0.574 55.487,3.714 80.185,9.559c20.887,4.943 37.305,16.009 56.188,24.078c15.09,6.449 35.1,14.619 48.268,23.783c28.224,19.64 49.874,43.678 70.069,68.719c30.741,38.117 65.282,81.381 85.301,130.868c17.101,42.274 23.195,88.963 20.973,138.925c-0.597,13.443 -0.177,29.578 -2.086,42.81c-3.123,21.644 -7.534,47.495 -13.992,68.189c-5.376,17.226 -11.272,33.868 -19.609,49.696c-12.241,23.237 -24.459,51.65 -40.261,72.606l-325.312,-251.426l73.871,406.787Z" style="fill:none;stroke:#000;stroke-width:12.5px;"/><path d="M471.712,791.321c-21.787,4.985 -44.331,8.526 -67.975,6.702c-27.386,-2.112 -54.275,-8.694 -79.031,-13.942c-35.411,-7.507 -70.815,-9.526 -100.602,-22.785c-35.138,-15.64 -67.73,-42.295 -94.456,-65.864c-18.189,-16.041 -27.341,-40.773 -43.541,-57.626c-18.293,-19.031 -33.187,-41.259 -44.86,-65.941c-11.615,-24.559 -14.806,-58.261 -20.223,-86.949c-5.333,-28.243 -12.984,-51.419 -12.651,-82.257c0.102,-9.428 3.355,-18.94 4.171,-28.17c2.703,-30.552 11.886,-59.074 19.502,-89.122c6.299,-24.854 15.019,-49.126 29.181,-73.007c12.157,-20.498 27.176,-40.767 44.324,-59.588c20.181,-22.149 42.737,-45.082 68.46,-63.466c27.757,-19.838 56.828,-45.117 89.44,-58.304c43.62,-17.639 92.192,-21.146 140.286,-23.707c11.447,-0.609 22.958,-0.802 34.38,-0.568c28.01,0.574 55.487,3.714 80.185,9.559c20.887,4.943 37.305,16.009 56.188,24.078c15.09,6.449 35.1,14.619 48.268,23.783c28.224,19.64 49.874,43.678 70.069,68.719c30.741,38.117 65.282,81.381 85.301,130.868c17.101,42.274 23.195,88.963 20.973,138.925c-0.597,13.443 -0.177,29.578 -2.086,42.81c-3.123,21.644 -7.534,47.495 -13.992,68.189c-5.376,17.226 -11.272,33.868 -19.609,49.696c-12.241,23.237 -24.459,51.65 -40.261,72.606l-325.312,-251.426l73.871,406.787Z" style="fill:#a2632e;"/><clipPath id="_clip1"><path d="M471.712,791.321c-21.787,4.985 -44.331,8.526 -67.975,6.702c-27.386,-2.112 -54.275,-8.694 -79.031,-13.942c-35.411,-7.507 -70.815,-9.526 -100.602,-22.785c-35.138,-15.64 -67.73,-42.295 -94.456,-65.864c-18.189,-16.041 -27.341,-40.773 -43.541,-57.626c-18.293,-19.031 -33.187,-41.259 -44.86,-65.941c-11.615,-24.559 -14.806,-58.261 -20.223,-86.949c-5.333,-28.243 -12.984,-51.419 -12.651,-82.257c0.102,-9.428 3.355,-18.94 4.171,-28.17c2.703,-30.552 11.886,-59.074 19.502,-89.122c6.299,-24.854 15.019,-49.126 29.181,-73.007c12.157,-20.498 27.176,-40.767 44.324,-59.588c20.181,-22.149 42.737,-45.082 68.46,-63.466c27.757,-19.838 56.828,-45.117 89.44,-58.304c43.62,-17.639 92.192,-21.146 140.286,-23.707c11.447,-0.609 22.958,-0.802 34.38,-0.568c28.01,0.574 55.487,3.714 80.185,9.559c20.887,4.943 37.305,16.009 56.188,24.078c15.09,6.449 35.1,14.619 48.268,23.783c28.224,19.64 49.874,43.678 70.069,68.719c30.741,38.117 65.282,81.381 85.301,130.868c17.101,42.274 23.195,88.963 20.973,138.925c-0.597,13.443 -0.177,29.578 -2.086,42.81c-3.123,21.644 -7.534,47.495 -13.992,68.189c-5.376,17.226 -11.272,33.868 -19.609,49.696c-12.241,23.237 -24.459,51.65 -40.261,72.606l-325.312,-251.426l73.871,406.787Z"/></clipPath><g clip-path="url(#_clip1)"><path d="M461.538,726.872c-15.679,0.325 -32.251,-0.894 -47.388,-1.124c-24.227,-0.369 -44.63,1.957 -70.1,-3.387c-7.787,-1.634 -15.14,-5.811 -22.649,-7.986c-24.855,-7.199 -46.995,-19.266 -70.648,-30.326c-19.565,-9.148 -38.261,-20.144 -55.765,-35.444c-15.025,-13.133 -29.402,-28.527 -42.241,-45.39c-15.11,-19.847 -30.488,-41.728 -41.597,-65.403c-11.987,-25.547 -28.267,-53.045 -33.975,-81.395c-7.634,-37.919 -2.78,-77.486 2.779,-116.514c1.324,-9.289 3.002,-18.56 5.02,-27.691c4.947,-22.389 11.933,-43.929 20.714,-62.793c7.426,-15.952 19.207,-27.309 28.901,-41.139c7.746,-11.052 17.703,-25.769 27.39,-34.831c20.762,-19.423 44.114,-32.844 68.064,-44.933c36.456,-18.401 77.779,-39.006 121.934,-46.928c37.718,-6.768 77.334,-3.973 118.33,6.035c11.031,2.693 24.452,5.012 35.099,8.723c17.415,6.07 38.106,13.867 54.203,22.458c13.399,7.151 26.23,14.623 37.999,23.922c17.309,13.676 38.921,28.189 53.743,44.356c13.259,14.462 20.053,32.111 30.579,48.298c8.515,13.096 19.143,26.538 26.026,40.455c7.69,15.547 15.383,33.179 20.377,49.636c6.312,20.801 8.564,42.077 9.96,63.725c1.689,26.178 3.849,53.533 -3.89,80.885c-6.121,21.636 -15.862,42.137 -24.158,61.145c-11.093,25.414 -18.216,51.613 -31.944,72.668l-280.46,-219.36l63.697,342.338Z" style="fill:none;stroke:#000;stroke-width:12.5px;"/><path d="M461.538,726.872c-15.679,0.325 -32.251,-0.894 -47.388,-1.124c-24.227,-0.369 -44.63,1.957 -70.1,-3.387c-7.787,-1.634 -15.14,-5.811 -22.649,-7.986c-24.855,-7.199 -46.995,-19.266 -70.648,-30.326c-19.565,-9.148 -38.261,-20.144 -55.765,-35.444c-15.025,-13.133 -29.402,-28.527 -42.241,-45.39c-15.11,-19.847 -30.488,-41.728 -41.597,-65.403c-11.987,-25.547 -28.267,-53.045 -33.975,-81.395c-7.634,-37.919 -2.78,-77.486 2.779,-116.514c1.324,-9.289 3.002,-18.56 5.02,-27.691c4.947,-22.389 11.933,-43.929 20.714,-62.793c7.426,-15.952 19.207,-27.309 28.901,-41.139c7.746,-11.052 17.703,-25.769 27.39,-34.831c20.762,-19.423 44.114,-32.844 68.064,-44.933c36.456,-18.401 77.779,-39.006 121.934,-46.928c37.718,-6.768 77.334,-3.973 118.33,6.035c11.031,2.693 24.452,5.012 35.099,8.723c17.415,6.07 38.106,13.867 54.203,22.458c13.399,7.151 26.23,14.623 37.999,23.922c17.309,13.676 38.921,28.189 53.743,44.356c13.259,14.462 20.053,32.111 30.579,48.298c8.515,13.096 19.143,26.538 26.026,40.455c7.69,15.547 15.383,33.179 20.377,49.636c6.312,20.801 8.564,42.077 9.96,63.725c1.689,26.178 3.849,53.533 -3.89,80.885c-6.121,21.636 -15.862,42.137 -24.158,61.145c-11.093,25.414 -18.216,51.613 -31.944,72.668l-280.46,-219.36l63.697,342.338Z" style="fill:#f9ce6f;"/><g><path d="M631.076,394.819c6.018,1.858 10.242,6.739 13.941,11.432c6.482,8.226 9.483,17.735 6.235,29.696c-0.954,3.512 -2.594,7.841 -4.494,10.686c-3.057,4.577 -8.257,9.902 -12.922,12.161c-7.102,3.44 -14.033,-0.171 -22.053,-2.647c-8.412,-2.597 -13.638,-8.791 -17.356,-15.793c-3.603,-6.786 -5.412,-13.304 -2.54,-22.579c1.268,-4.095 4.361,-7.111 6.747,-10.328c3.866,-5.216 8.209,-7.837 13.644,-10.179c5.608,-2.416 12.346,-4.441 18.798,-2.449Z" style="fill:none;stroke:#000;stroke-width:12.5px;"/><path d="M631.076,394.819c6.018,1.858 10.242,6.739 13.941,11.432c6.482,8.226 9.483,17.735 6.235,29.696c-0.954,3.512 -2.594,7.841 -4.494,10.686c-3.057,4.577 -8.257,9.902 -12.922,12.161c-7.102,3.44 -14.033,-0.171 -22.053,-2.647c-8.412,-2.597 -13.638,-8.791 -17.356,-15.793c-3.603,-6.786 -5.412,-13.304 -2.54,-22.579c1.268,-4.095 4.361,-7.111 6.747,-10.328c3.866,-5.216 8.209,-7.837 13.644,-10.179c5.608,-2.416 12.346,-4.441 18.798,-2.449Z" style="fill:#c03e3b;"/><path d="M563.986,197.003c6.298,0 11.774,3.418 16.693,6.811c8.621,5.948 14.293,14.148 14.717,26.536c0.125,3.637 -0.165,8.257 -1.142,11.536c-1.571,5.275 -4.968,11.896 -8.76,15.432c-5.771,5.381 -13.459,3.975 -21.852,3.975c-8.804,0 -15.624,-4.377 -21.242,-9.97c-5.445,-5.421 -9.095,-11.116 -9.087,-20.826c0.003,-4.286 2.069,-8.08 3.399,-11.859c2.156,-6.124 5.533,-9.909 10.036,-13.75c4.645,-3.963 10.485,-7.885 17.238,-7.885Z" style="fill:none;stroke:#000;stroke-width:12.5px;"/><path d="M563.986,197.003c6.298,0 11.774,3.418 16.693,6.811c8.621,5.948 14.293,14.148 14.717,26.536c0.125,3.637 -0.165,8.257 -1.142,11.536c-1.571,5.275 -4.968,11.896 -8.76,15.432c-5.771,5.381 -13.459,3.975 -21.852,3.975c-8.804,0 -15.624,-4.377 -21.242,-9.97c-5.445,-5.421 -9.095,-11.116 -9.087,-20.826c0.003,-4.286 2.069,-8.08 3.399,-11.859c2.156,-6.124 5.533,-9.909 10.036,-13.75c4.645,-3.963 10.485,-7.885 17.238,-7.885Z" style="fill:#c03e3b;"/><path d="M418.496,156.006c6.298,-0 11.774,3.417 16.693,6.811c8.62,5.948 14.293,14.148 14.717,26.535c0.125,3.638 -0.166,8.258 -1.142,11.537c-1.571,5.274 -4.968,11.896 -8.76,15.431c-5.771,5.381 -13.459,3.976 -21.853,3.976c-8.803,-0 -15.624,-4.378 -21.241,-9.971c-5.445,-5.421 -9.096,-11.115 -9.088,-20.825c0.004,-4.287 2.07,-8.081 3.4,-11.859c2.156,-6.124 5.533,-9.909 10.035,-13.75c4.646,-3.963 10.486,-7.885 17.239,-7.885Z" style="fill:none;stroke:#000;stroke-width:12.5px;"/><path d="M418.496,156.006c6.298,-0 11.774,3.417 16.693,6.811c8.62,5.948 14.293,14.148 14.717,26.535c0.125,3.638 -0.166,8.258 -1.142,11.537c-1.571,5.274 -4.968,11.896 -8.76,15.431c-5.771,5.381 -13.459,3.976 -21.853,3.976c-8.803,-0 -15.624,-4.378 -21.241,-9.971c-5.445,-5.421 -9.096,-11.115 -9.088,-20.825c0.004,-4.287 2.07,-8.081 3.4,-11.859c2.156,-6.124 5.533,-9.909 10.035,-13.75c4.646,-3.963 10.486,-7.885 17.239,-7.885Z" style="fill:#c03e3b;"/><path d="M388.789,615.025c6.298,0 11.774,3.418 16.693,6.811c8.62,5.948 14.293,14.149 14.717,26.536c0.125,3.637 -0.166,8.257 -1.142,11.536c-1.571,5.275 -4.968,11.896 -8.76,15.432c-5.771,5.381 -13.459,3.975 -21.853,3.975c-8.803,0 -15.624,-4.377 -21.241,-9.97c-5.445,-5.421 -9.096,-11.116 -9.088,-20.826c0.004,-4.286 2.07,-8.08 3.4,-11.858c2.156,-6.125 5.533,-9.91 10.035,-13.751c4.646,-3.963 10.486,-7.885 17.239,-7.885Z" style="fill:none;stroke:#000;stroke-width:12.5px;"/><path d="M388.789,615.025c6.298,0 11.774,3.418 16.693,6.811c8.62,5.948 14.293,14.149 14.717,26.536c0.125,3.637 -0.166,8.257 -1.142,11.536c-1.571,5.275 -4.968,11.896 -8.76,15.432c-5.771,5.381 -13.459,3.975 -21.853,3.975c-8.803,0 -15.624,-4.377 -21.241,-9.97c-5.445,-5.421 -9.096,-11.116 -9.088,-20.826c0.004,-4.286 2.07,-8.08 3.4,-11.858c2.156,-6.125 5.533,-9.91 10.035,-13.751c4.646,-3.963 10.486,-7.885 17.239,-7.885Z" style="fill:#c03e3b;"/><path d="M358.599,498.697c6.297,0 11.774,3.418 16.692,6.811c8.621,5.948 14.293,14.149 14.718,26.536c0.125,3.637 -0.166,8.257 -1.142,11.536c-1.571,5.275 -4.969,11.897 -8.76,15.432c-5.772,5.381 -13.459,3.975 -21.853,3.975c-8.803,0 -15.624,-4.377 -21.242,-9.97c-5.445,-5.421 -9.095,-11.116 -9.087,-20.826c0.004,-4.286 2.07,-8.08 3.4,-11.858c2.155,-6.125 5.533,-9.91 10.035,-13.751c4.645,-3.962 10.486,-7.885 17.239,-7.885Z" style="fill:none;stroke:#000;stroke-width:12.5px;"/><path d="M358.599,498.697c6.297,0 11.774,3.418 16.692,6.811c8.621,5.948 14.293,14.149 14.718,26.536c0.125,3.637 -0.166,8.257 -1.142,11.536c-1.571,5.275 -4.969,11.897 -8.76,15.432c-5.772,5.381 -13.459,3.975 -21.853,3.975c-8.803,0 -15.624,-4.377 -21.242,-9.97c-5.445,-5.421 -9.095,-11.116 -9.087,-20.826c0.004,-4.286 2.07,-8.08 3.4,-11.858c2.155,-6.125 5.533,-9.91 10.035,-13.751c4.645,-3.962 10.486,-7.885 17.239,-7.885Z" style="fill:#c03e3b;"/><path d="M509.811,329.556c6.298,-0 11.775,3.417 16.693,6.811c8.621,5.947 14.293,14.148 14.718,26.535c0.124,3.637 -0.166,8.257 -1.143,11.537c-1.57,5.274 -4.968,11.896 -8.76,15.431c-5.771,5.381 -13.459,3.975 -21.852,3.975c-8.804,0 -15.624,-4.377 -21.242,-9.97c-5.445,-5.421 -9.095,-11.116 -9.087,-20.825c0.003,-4.287 2.069,-8.081 3.399,-11.859c2.156,-6.125 5.533,-9.91 10.036,-13.751c4.645,-3.962 10.485,-7.884 17.238,-7.884Z" style="fill:none;stroke:#000;stroke-width:12.5px;"/><path d="M509.811,329.556c6.298,-0 11.775,3.417 16.693,6.811c8.621,5.947 14.293,14.148 14.718,26.535c0.124,3.637 -0.166,8.257 -1.143,11.537c-1.57,5.274 -4.968,11.896 -8.76,15.431c-5.771,5.381 -13.459,3.975 -21.852,3.975c-8.804,0 -15.624,-4.377 -21.242,-9.97c-5.445,-5.421 -9.095,-11.116 -9.087,-20.825c0.003,-4.287 2.069,-8.081 3.399,-11.859c2.156,-6.125 5.533,-9.91 10.036,-13.751c4.645,-3.962 10.485,-7.884 17.238,-7.884Z" style="fill:#c03e3b;"/><path d="M418.496,262.763c6.298,-0 11.774,3.417 16.693,6.811c8.62,5.947 14.293,14.148 14.717,26.535c0.125,3.637 -0.166,8.257 -1.142,11.537c-1.571,5.274 -4.968,11.896 -8.76,15.431c-5.771,5.381 -13.459,3.975 -21.853,3.975c-8.803,0 -15.624,-4.377 -21.241,-9.97c-5.445,-5.421 -9.096,-11.116 -9.088,-20.825c0.004,-4.287 2.07,-8.081 3.4,-11.859c2.156,-6.125 5.533,-9.91 10.035,-13.751c4.646,-3.962 10.486,-7.884 17.239,-7.884Z" style="fill:none;stroke:#000;stroke-width:12.5px;"/><path d="M418.496,262.763c6.298,-0 11.774,3.417 16.693,6.811c8.62,5.947 14.293,14.148 14.717,26.535c0.125,3.637 -0.166,8.257 -1.142,11.537c-1.571,5.274 -4.968,11.896 -8.76,15.431c-5.771,5.381 -13.459,3.975 -21.853,3.975c-8.803,0 -15.624,-4.377 -21.241,-9.97c-5.445,-5.421 -9.096,-11.116 -9.088,-20.825c0.004,-4.287 2.07,-8.081 3.4,-11.859c2.156,-6.125 5.533,-9.91 10.035,-13.751c4.646,-3.962 10.486,-7.884 17.239,-7.884Z" style="fill:#c03e3b;"/><path d="M324.675,169.037c6.297,0 11.774,3.418 16.692,6.811c8.621,5.948 14.293,14.149 14.718,26.536c0.124,3.637 -0.166,8.257 -1.143,11.536c-1.57,5.275 -4.968,11.897 -8.759,15.432c-5.772,5.381 -13.46,3.975 -21.853,3.975c-8.803,0 -15.624,-4.377 -21.242,-9.97c-5.445,-5.421 -9.095,-11.116 -9.087,-20.826c0.004,-4.286 2.07,-8.08 3.4,-11.858c2.155,-6.125 5.532,-9.91 10.035,-13.751c4.645,-3.962 10.486,-7.885 17.239,-7.885Z" style="fill:none;stroke:#000;stroke-width:12.5px;"/><path d="M324.675,169.037c6.297,0 11.774,3.418 16.692,6.811c8.621,5.948 14.293,14.149 14.718,26.536c0.124,3.637 -0.166,8.257 -1.143,11.536c-1.57,5.275 -4.968,11.897 -8.759,15.432c-5.772,5.381 -13.46,3.975 -21.853,3.975c-8.803,0 -15.624,-4.377 -21.242,-9.97c-5.445,-5.421 -9.095,-11.116 -9.087,-20.826c0.004,-4.286 2.07,-8.08 3.4,-11.858c2.155,-6.125 5.532,-9.91 10.035,-13.751c4.645,-3.962 10.486,-7.885 17.239,-7.885Z" style="fill:#c03e3b;"/><path d="M219.035,200.646c6.298,0 11.774,3.418 16.693,6.811c8.62,5.948 14.293,14.148 14.717,26.536c0.125,3.637 -0.166,8.257 -1.142,11.536c-1.571,5.275 -4.968,11.896 -8.76,15.432c-5.771,5.381 -13.459,3.975 -21.852,3.975c-8.804,0 -15.625,-4.377 -21.242,-9.97c-5.445,-5.421 -9.096,-11.116 -9.087,-20.826c0.003,-4.286 2.069,-8.08 3.399,-11.859c2.156,-6.124 5.533,-9.909 10.035,-13.75c4.646,-3.963 10.486,-7.885 17.239,-7.885Z" style="fill:none;stroke:#000;stroke-width:12.5px;"/><path d="M219.035,200.646c6.298,0 11.774,3.418 16.693,6.811c8.62,5.948 14.293,14.148 14.717,26.536c0.125,3.637 -0.166,8.257 -1.142,11.536c-1.571,5.275 -4.968,11.896 -8.76,15.432c-5.771,5.381 -13.459,3.975 -21.852,3.975c-8.804,0 -15.625,-4.377 -21.242,-9.97c-5.445,-5.421 -9.096,-11.116 -9.087,-20.826c0.003,-4.286 2.069,-8.08 3.399,-11.859c2.156,-6.124 5.533,-9.909 10.035,-13.75c4.646,-3.963 10.486,-7.885 17.239,-7.885Z" style="fill:#c03e3b;"/><path d="M299.95,263.255c6.297,-0 11.774,3.417 16.692,6.811c8.621,5.948 14.293,14.148 14.718,26.535c0.125,3.638 -0.166,8.257 -1.142,11.537c-1.571,5.274 -4.969,11.896 -8.76,15.431c-5.772,5.381 -13.459,3.976 -21.853,3.976c-8.803,-0 -15.624,-4.378 -21.242,-9.971c-5.445,-5.421 -9.095,-11.116 -9.087,-20.825c0.004,-4.287 2.07,-8.081 3.4,-11.859c2.155,-6.125 5.533,-9.91 10.035,-13.75c4.645,-3.963 10.486,-7.885 17.239,-7.885Z" style="fill:none;stroke:#000;stroke-width:12.5px;"/><path d="M299.95,263.255c6.297,-0 11.774,3.417 16.692,6.811c8.621,5.948 14.293,14.148 14.718,26.535c0.125,3.638 -0.166,8.257 -1.142,11.537c-1.571,5.274 -4.969,11.896 -8.76,15.431c-5.772,5.381 -13.459,3.976 -21.853,3.976c-8.803,-0 -15.624,-4.378 -21.242,-9.971c-5.445,-5.421 -9.095,-11.116 -9.087,-20.825c0.004,-4.287 2.07,-8.081 3.4,-11.859c2.155,-6.125 5.533,-9.91 10.035,-13.75c4.645,-3.963 10.486,-7.885 17.239,-7.885Z" style="fill:#c03e3b;"/><path d="M167.044,337.854c6.298,0 11.774,3.418 16.693,6.811c8.62,5.948 14.292,14.149 14.717,26.536c0.125,3.637 -0.166,8.257 -1.142,11.536c-1.571,5.275 -4.969,11.897 -8.76,15.432c-5.771,5.381 -13.459,3.975 -21.853,3.975c-8.803,0 -15.624,-4.377 -21.242,-9.97c-5.444,-5.421 -9.095,-11.116 -9.087,-20.826c0.004,-4.286 2.07,-8.08 3.4,-11.858c2.156,-6.125 5.533,-9.91 10.035,-13.751c4.646,-3.963 10.486,-7.885 17.239,-7.885Z" style="fill:none;stroke:#000;stroke-width:12.5px;"/><path d="M167.044,337.854c6.298,0 11.774,3.418 16.693,6.811c8.62,5.948 14.292,14.149 14.717,26.536c0.125,3.637 -0.166,8.257 -1.142,11.536c-1.571,5.275 -4.969,11.897 -8.76,15.432c-5.771,5.381 -13.459,3.975 -21.853,3.975c-8.803,0 -15.624,-4.377 -21.242,-9.97c-5.444,-5.421 -9.095,-11.116 -9.087,-20.826c0.004,-4.286 2.07,-8.08 3.4,-11.858c2.156,-6.125 5.533,-9.91 10.035,-13.751c4.646,-3.963 10.486,-7.885 17.239,-7.885Z" style="fill:#c03e3b;"/><path d="M176.901,457.953c6.298,0 11.775,3.418 16.693,6.811c8.621,5.948 14.293,14.149 14.718,26.536c0.124,3.637 -0.166,8.257 -1.143,11.536c-1.57,5.275 -4.968,11.896 -8.76,15.432c-5.771,5.381 -13.459,3.975 -21.852,3.975c-8.803,0 -15.624,-4.377 -21.242,-9.97c-5.445,-5.421 -9.095,-11.116 -9.087,-20.826c0.003,-4.286 2.07,-8.08 3.399,-11.858c2.156,-6.125 5.533,-9.91 10.036,-13.751c4.645,-3.963 10.486,-7.885 17.238,-7.885Z" style="fill:none;stroke:#000;stroke-width:12.5px;"/><path d="M176.901,457.953c6.298,0 11.775,3.418 16.693,6.811c8.621,5.948 14.293,14.149 14.718,26.536c0.124,3.637 -0.166,8.257 -1.143,11.536c-1.57,5.275 -4.968,11.896 -8.76,15.432c-5.771,5.381 -13.459,3.975 -21.852,3.975c-8.803,0 -15.624,-4.377 -21.242,-9.97c-5.445,-5.421 -9.095,-11.116 -9.087,-20.826c0.003,-4.286 2.07,-8.08 3.399,-11.858c2.156,-6.125 5.533,-9.91 10.036,-13.751c4.645,-3.963 10.486,-7.885 17.238,-7.885Z" style="fill:#c03e3b;"/><path d="M263.242,548.868c6.298,0 11.774,3.418 16.693,6.811c8.62,5.948 14.292,14.148 14.717,26.535c0.125,3.638 -0.166,8.258 -1.142,11.537c-1.571,5.275 -4.969,11.896 -8.76,15.431c-5.771,5.382 -13.459,3.976 -21.853,3.976c-8.803,-0 -15.624,-4.377 -21.242,-9.971c-5.444,-5.42 -9.095,-11.115 -9.087,-20.825c0.004,-4.286 2.07,-8.081 3.4,-11.859c2.156,-6.124 5.533,-9.909 10.035,-13.75c4.646,-3.963 10.486,-7.885 17.239,-7.885Z" style="fill:none;stroke:#000;stroke-width:12.5px;"/><path d="M263.242,548.868c6.298,0 11.774,3.418 16.693,6.811c8.62,5.948 14.292,14.148 14.717,26.535c0.125,3.638 -0.166,8.258 -1.142,11.537c-1.571,5.275 -4.969,11.896 -8.76,15.431c-5.771,5.382 -13.459,3.976 -21.853,3.976c-8.803,-0 -15.624,-4.377 -21.242,-9.971c-5.444,-5.42 -9.095,-11.115 -9.087,-20.825c0.004,-4.286 2.07,-8.081 3.4,-11.859c2.156,-6.124 5.533,-9.909 10.035,-13.75c4.646,-3.963 10.486,-7.885 17.239,-7.885Z" style="fill:#c03e3b;"/><path d="M268.541,420.492c6.298,0 11.774,3.418 16.693,6.811c8.62,5.948 14.293,14.148 14.717,26.536c0.125,3.637 -0.166,8.257 -1.142,11.536c-1.571,5.275 -4.968,11.896 -8.76,15.432c-5.771,5.381 -13.459,3.975 -21.853,3.975c-8.803,-0 -15.624,-4.377 -21.241,-9.97c-5.445,-5.421 -9.096,-11.116 -9.088,-20.826c0.004,-4.286 2.07,-8.08 3.4,-11.859c2.156,-6.124 5.533,-9.909 10.035,-13.75c4.646,-3.963 10.486,-7.885 17.239,-7.885Z" style="fill:none;stroke:#000;stroke-width:12.5px;"/><path d="M268.541,420.492c6.298,0 11.774,3.418 16.693,6.811c8.62,5.948 14.293,14.148 14.717,26.536c0.125,3.637 -0.166,8.257 -1.142,11.536c-1.571,5.275 -4.968,11.896 -8.76,15.432c-5.771,5.381 -13.459,3.975 -21.853,3.975c-8.803,-0 -15.624,-4.377 -21.241,-9.97c-5.445,-5.421 -9.096,-11.116 -9.088,-20.826c0.004,-4.286 2.07,-8.08 3.4,-11.859c2.156,-6.124 5.533,-9.909 10.035,-13.75c4.646,-3.963 10.486,-7.885 17.239,-7.885Z" style="fill:#c03e3b;"/></g></g><g id="pizza-slice"><path d="M438.45,471.956c2.207,-6.229 5.676,-11.378 10.66,-12.923c10.978,-3.403 29.306,10.683 29.306,10.683c42.501,33.167 83.538,67.613 125.391,97.402c43.037,30.634 83.1,68.502 125.277,102.484l-234.444,150.021l-17.996,-88.526l-11.869,-75.784c-2.838,-2.953 -6.788,-8.187 -12.174,-16.473c-33.328,-51.27 -9.249,-32.425 -11.433,-35.839c-1.55,-2.423 10.741,9.449 18.004,16.542l-0.027,-0.177c-1.197,-7.186 -2.621,-14.641 -4.169,-22.244c-0.799,-1.187 -1.635,-2.45 -2.508,-3.793c-33.329,-51.271 -9.25,-32.426 -11.433,-35.839c-0.838,-1.31 2.367,1.556 6.638,5.588c-0.931,-4.266 -1.855,-8.523 -2.756,-12.754c-2.573,-3.112 -5.825,-7.632 -9.898,-13.897c-33.328,-51.271 -9.249,-32.426 -11.433,-35.84c-1.308,-2.044 7.238,6.088 14.304,12.941c-0.288,-1.836 -0.56,-3.651 -0.813,-5.446c-1.957,-2.779 -4.109,-5.967 -6.468,-9.597c-44.101,-67.862 -12.181,-42.957 -15.07,-47.475c-1.984,-3.104 13.204,11.498 22.911,20.946l-0,0Z" style="fill:#f9ce6f;"/><g><clipPath id="_clip2"><path d="M438.45,471.956c2.207,-6.229 5.676,-11.378 10.66,-12.923c10.978,-3.403 29.306,10.683 29.306,10.683c42.501,33.167 83.538,67.613 125.391,97.402c43.037,30.634 83.1,68.502 125.277,102.484l-234.444,150.021l-17.996,-88.526l-11.869,-75.784c-2.838,-2.953 -6.788,-8.187 -12.174,-16.473c-33.328,-51.27 -9.249,-32.425 -11.433,-35.839c-1.55,-2.423 10.741,9.449 18.004,16.542l-0.027,-0.177c-1.197,-7.186 -2.621,-14.641 -4.169,-22.244c-0.799,-1.187 -1.635,-2.45 -2.508,-3.793c-33.329,-51.271 -9.25,-32.426 -11.433,-35.839c-0.838,-1.31 2.367,1.556 6.638,5.588c-0.931,-4.266 -1.855,-8.523 -2.756,-12.754c-2.573,-3.112 -5.825,-7.632 -9.898,-13.897c-33.328,-51.271 -9.249,-32.426 -11.433,-35.84c-1.308,-2.044 7.238,6.088 14.304,12.941c-0.288,-1.836 -0.56,-3.651 -0.813,-5.446c-1.957,-2.779 -4.109,-5.967 -6.468,-9.597c-44.101,-67.862 -12.181,-42.957 -15.07,-47.475c-1.984,-3.104 13.204,11.498 22.911,20.946l-0,0Z"/></clipPath><g clip-path="url(#_clip2)"><g><path d="M680.854,673.488c-3.188,2.186 -6.563,3.93 -10.159,4.652c-4.811,0.965 -10.028,2.368 -14.441,0.126c-8.937,-4.538 -15.458,-6.663 -20.013,-12.827c-4.94,-6.685 -5.309,-14.382 -5.18,-22.598c0.138,-8.795 6.002,-16.612 13.74,-21.919c1.632,-1.12 3.288,-2.16 5.073,-2.855c13.41,-5.225 23.867,-3.706 31.867,2.511c2.865,2.226 5.554,5.415 7.672,8.393c3.267,4.593 5.247,9.788 5.524,15.04c0.368,6.992 -2.285,13.274 -4.873,19.808c-1.693,4.274 -5.351,7.023 -9.21,9.669Z" style="fill:#c03e3b;stroke:#000;stroke-width:1.81px;"/><path d="M594.509,634.858c-2.675,1.835 -5.498,3.313 -8.485,3.963c-3.997,0.87 -8.337,2.103 -11.948,0.358c-7.313,-3.535 -12.67,-5.15 -16.329,-10.084c-3.969,-5.353 -4.138,-11.608 -3.887,-18.295c0.269,-7.158 5.257,-13.622 11.752,-18.076c1.37,-0.94 2.757,-1.815 4.246,-2.412c11.186,-4.487 19.808,-3.436 26.317,1.482c2.33,1.761 4.499,4.307 6.199,6.693c2.621,3.68 4.168,7.872 4.304,12.14c0.181,5.682 -2.123,10.84 -4.38,16.202c-1.475,3.507 -4.55,5.808 -7.789,8.029Z" style="fill:#c03e3b;stroke:#000;stroke-width:1.81px;"/><path d="M507.983,573.305c-2.923,2.004 -6.001,3.628 -9.246,4.365c-4.342,0.987 -9.061,2.367 -12.951,0.54c-7.877,-3.699 -13.66,-5.361 -17.56,-10.611c-4.23,-5.693 -4.332,-12.405 -3.972,-19.586c0.385,-7.687 5.874,-14.691 12.969,-19.557c1.496,-1.026 3.012,-1.984 4.633,-2.644c12.178,-4.963 21.507,-3.947 28.494,1.246c2.502,1.86 4.819,4.565 6.629,7.104c2.792,3.915 4.413,8.395 4.505,12.974c0.122,6.097 -2.443,11.664 -4.957,17.449c-1.645,3.783 -5.007,6.293 -8.544,8.72Z" style="fill:#c03e3b;stroke:#000;stroke-width:1.81px;"/><path d="M586.973,737.877c-2.891,1.983 -5.938,3.585 -9.158,4.3c-4.307,0.957 -8.986,2.305 -12.862,0.456c-7.849,-3.743 -13.605,-5.44 -17.513,-10.706c-4.239,-5.712 -4.384,-12.414 -4.072,-19.581c0.333,-7.673 5.742,-14.63 12.759,-19.442c1.48,-1.016 2.979,-1.962 4.586,-2.611c12.066,-4.877 21.341,-3.804 28.316,1.426c2.498,1.873 4.817,4.589 6.631,7.135c2.799,3.927 4.438,8.41 4.559,12.983c0.16,6.088 -2.352,11.629 -4.813,17.389c-1.61,3.767 -4.934,6.251 -8.433,8.651Z" style="fill:#c03e3b;stroke:#000;stroke-width:1.81px;"/><path d="M500.016,703.082c-2.678,1.837 -5.504,3.316 -8.496,3.965c-4.002,0.868 -8.349,2.099 -11.968,0.345c-7.329,-3.551 -12.696,-5.175 -16.367,-10.127c-3.981,-5.37 -4.158,-11.641 -3.914,-18.345c0.262,-7.176 5.252,-13.651 11.753,-18.109c1.371,-0.941 2.761,-1.817 4.251,-2.414c11.2,-4.486 19.839,-3.423 26.364,1.514c2.336,1.767 4.511,4.323 6.216,6.716c2.63,3.692 4.184,7.897 4.325,12.176c0.188,5.696 -2.116,10.865 -4.37,16.238c-1.475,3.515 -4.552,5.818 -7.794,8.041Z" style="fill:#c03e3b;stroke:#000;stroke-width:1.81px;"/></g></g></g><path d="M438.45,471.956c2.207,-6.229 5.676,-11.378 10.66,-12.923c10.978,-3.403 29.306,10.683 29.306,10.683c42.501,33.167 83.538,67.613 125.391,97.402c43.037,30.634 83.1,68.502 125.277,102.484l-234.444,150.021l-17.996,-88.526l-11.869,-75.784c-2.838,-2.953 -6.788,-8.187 -12.174,-16.473c-33.328,-51.27 -9.249,-32.425 -11.433,-35.839c-1.55,-2.423 10.741,9.449 18.004,16.542l-0.027,-0.177c-1.197,-7.186 -2.621,-14.641 -4.169,-22.244c-0.799,-1.187 -1.635,-2.45 -2.508,-3.793c-33.329,-51.271 -9.25,-32.426 -11.433,-35.839c-0.838,-1.31 2.367,1.556 6.638,5.588c-0.931,-4.266 -1.855,-8.523 -2.756,-12.754c-2.573,-3.112 -5.825,-7.632 -9.898,-13.897c-33.328,-51.271 -9.249,-32.426 -11.433,-35.84c-1.308,-2.044 7.238,6.088 14.304,12.941c-0.288,-1.836 -0.56,-3.651 -0.813,-5.446c-1.957,-2.779 -4.109,-5.967 -6.468,-9.597c-44.101,-67.862 -12.181,-42.957 -15.07,-47.475c-1.984,-3.104 13.204,11.498 22.911,20.946l-0,0Z" style="fill:none;stroke:#000;stroke-width:3.63px;"/><path d="M616.885,795.627c-21.887,13.928 -69.737,44.598 -92.727,52.811c-22.991,8.212 -41.752,5.523 -43.06,-0.423c-1.308,-5.947 -0.738,-28.117 14.017,-38.374c14.755,-10.257 44.135,-28.122 55.963,-36.418c11.828,-8.296 54.927,-37.38 68.019,-41.564c13.092,-4.183 53.128,-31.1 59.631,-37.029c6.502,-5.93 35.81,-29.479 46.382,-32.129c10.572,-2.651 27.248,-6.093 33.738,7.511c6.49,13.605 -5.669,34.126 -14.909,44.44c-9.24,10.314 -64.132,46.975 -64.132,46.975c0,-0 -41.036,20.272 -62.922,34.2Z" style="fill:#a2632e;stroke:#000;stroke-width:6.36px;"/></g></g></svg>