<?xml version="1.0" encoding="UTF-8" standalone="no"?><!DOCTYPE svg PUBLIC "-//W3C//DTD SVG 1.1//EN" "http://www.w3.org/Graphics/SVG/1.1/DTD/svg11.dtd"><svg width="100%" height="100%" viewBox="0 0 1898 244" version="1.1" xmlns="http://www.w3.org/2000/svg" xmlns:xlink="http://www.w3.org/1999/xlink" xml:space="preserve" xmlns:serif="http://www.serif.com/" style="fill-rule:evenodd;clip-rule:evenodd;stroke-linejoin:round;stroke-miterlimit:2;"><g id="pizzamania-logo"><g><path d="M1755.56,206.716l-7.826,20.417c-3.598,9.386 -12.61,15.583 -22.663,15.583l-75.6,0c-8.044,0 -15.565,-3.985 -20.083,-10.641c-4.517,-6.656 -5.443,-15.118 -2.472,-22.594l74.743,-188.064c3.45,-8.681 11.576,-14.612 20.896,-15.25l74.957,-5.136c10.624,-0.727 20.482,5.555 24.309,15.492l74.4,193.2c2.874,7.464 1.887,15.865 -2.64,22.459c-4.527,6.594 -12.012,10.534 -20.01,10.534l-75.6,0c-10.052,0 -19.064,-6.197 -22.663,-15.583l-7.826,-20.417l-11.922,0Zm59.1,-12.541l23.556,-0l-55.257,-143.491l-41.836,2.866l-55.888,140.625l23.147,-0l7.826,-20.417c3.599,-9.386 12.611,-15.583 22.663,-15.583l45.3,-0c10.053,-0 19.065,6.197 22.663,15.583l7.826,20.417Zm-90.536,-70.212c-2.979,7.476 -2.057,15.943 2.459,22.603c4.516,6.661 12.041,10.65 20.088,10.65l29.4,0c8.048,0 15.572,-3.989 20.089,-10.65c4.516,-6.66 5.437,-15.127 2.459,-22.603l-14.7,-36.9c-3.678,-9.231 -12.611,-15.288 -22.548,-15.288c-9.937,-0 -18.87,6.057 -22.547,15.288l-14.7,36.9Z" style="fill:#fff;"/><path d="M1649.47,218.445l74.743,-188.064l74.957,-5.136l74.4,193.2l-75.6,0l-13.8,-36l-45.3,0l-13.8,36l-75.6,0Zm97.2,-85.5l29.4,0l-14.7,-36.9l-14.7,36.9Z" style="fill:#9b0000;fill-rule:nonzero;"/><path d="M1537.6,218.412c-0.008,6.443 2.545,12.625 7.097,17.184c4.553,4.559 10.731,7.12 17.174,7.12l72.6,0c6.445,0 12.625,-2.563 17.178,-7.124c4.553,-4.561 7.105,-10.746 7.093,-17.191l-0.331,-182.45c-0.012,-6.559 -2.678,-12.834 -7.391,-17.396c-4.713,-4.561 -11.071,-7.021 -17.627,-6.819l-72.021,2.218c-13.095,0.404 -23.506,11.126 -23.524,24.226l-0.248,180.232Zm48.758,-156.663l-0.183,132.426l23.981,-0l-0.241,-133.151l-23.557,0.725Z" style="fill:#fff;"/><path d="M1561.87,218.445l0.248,-180.231l72.021,-2.219l0.331,182.45l-72.6,0Z" style="fill:#9b0000;fill-rule:nonzero;"/><path d="M1444.46,42.726c0.307,-12.856 10.619,-23.269 23.522,-23.66l73.081,-2.214c6.583,-0.2 12.965,2.285 17.681,6.884c4.715,4.598 7.359,10.916 7.325,17.502l-0.928,177.334c-0.07,13.355 -10.916,24.144 -24.271,24.144l-61.2,0c-7.861,0 -15.235,-3.807 -19.787,-10.215l-9.654,-13.591c-0.24,13.191 -11.01,23.806 -24.259,23.806l-72.6,0c-13.371,0 -24.223,-10.814 -24.27,-24.185l-0.596,-168.911c-0.046,-13.064 10.257,-23.821 23.311,-24.338l61.719,-2.444c6.764,-0.268 13.332,2.301 18.119,7.087l12.807,12.801Zm47.741,151.449l24.525,-0l0.67,-128.042l-24.59,0.745l-0.266,34.156c-0.076,9.781 -6.016,18.561 -15.067,22.27c-9.051,3.709 -19.444,1.622 -26.362,-5.293l-46.266,-46.249l-27.717,1.098l0.428,121.315l24.143,-0l0,-51.33c0,-10.562 6.832,-19.912 16.895,-23.122c10.063,-3.211 21.047,0.456 27.163,9.067l46.444,65.385Z" style="fill:#fff;"/><path d="M1353.37,218.445l-0.595,-168.911l61.719,-2.444l53.776,53.755l0.447,-57.519l73.081,-2.215l-0.928,177.334l-61.2,0l-53.7,-75.6l0,75.6l-72.6,0Z" style="fill:#9b0000;fill-rule:nonzero;"/><path d="M1220.36,206.716l-7.826,20.417c-3.598,9.386 -12.61,15.583 -22.663,15.583l-75.6,0c-8.234,0 -15.907,-4.175 -20.379,-11.088c-4.472,-6.914 -5.134,-15.624 -1.758,-23.134l73.663,-163.86c3.819,-8.496 12.164,-14.057 21.475,-14.311l80.307,-2.19c9.993,-0.273 19.131,5.61 23.021,14.819l70.13,166.051c3.165,7.494 2.365,16.076 -2.132,22.857c-4.496,6.78 -12.091,10.856 -20.227,10.856l-75.6,0c-10.052,0 -19.064,-6.197 -22.663,-15.583l-7.826,-20.417l-11.922,0Zm59.1,-12.541l22.314,-0l-49.442,-117.066l-10.647,0.29c3.058,2.523 5.502,5.818 7.034,9.664l14.7,36.9c2.978,7.476 2.057,15.943 -2.459,22.603c-4.517,6.661 -12.041,10.65 -20.089,10.65l-29.4,0c-8.047,0 -15.572,-3.989 -20.088,-10.65c-4.516,-6.66 -5.438,-15.127 -2.459,-22.603l14.7,-36.9c1.36,-3.414 3.438,-6.393 6.025,-8.79l-5.825,0.159l-52.031,115.743l21.389,-0l7.826,-20.417c3.599,-9.386 12.611,-15.583 22.663,-15.583l45.3,-0c10.053,-0 19.065,6.197 22.663,15.583l7.826,20.417Z" style="fill:#fff;"/><path d="M1114.27,218.445l73.663,-163.86l80.307,-2.19l70.13,166.05l-75.6,0l-13.8,-36l-45.3,0l-13.8,36l-75.6,0Zm97.2,-85.5l29.4,0l-14.7,-36.9l-14.7,36.9Z" style="fill:#9b0000;fill-rule:nonzero;"/><path d="M991.76,65.814l19.129,-23.687c4.533,-5.613 11.327,-8.918 18.541,-9.019l70.886,-0.999c6.531,-0.092 12.824,2.452 17.456,7.058c4.632,4.607 7.212,10.885 7.156,17.417l-1.384,162.069c-0.114,13.323 -10.946,24.063 -24.27,24.063l-72.6,0c-13.404,0 -24.271,-10.866 -24.271,-24.271l0,-8.729l-22.558,0l0,8.729c0,13.405 -10.866,24.271 -24.271,24.271l-72.6,0c-6.437,0 -12.611,-2.557 -17.162,-7.109c-4.552,-4.552 -7.109,-10.726 -7.109,-17.163l0.012,-160.707c0.001,-13.404 10.867,-24.269 24.271,-24.269l71.981,-0c7.545,-0 14.66,3.508 19.254,9.494l17.539,22.852Zm59.185,128.361l24.265,-0l0.966,-113.18l-34.677,0.489l-31.343,38.811c-4.673,5.787 -11.744,9.112 -19.182,9.019c-7.439,-0.092 -14.424,-3.59 -18.954,-9.492l-29.02,-37.812l-35.745,-0l-0.008,112.165l24.056,-0l0,-43.53c0,-11.287 7.782,-21.085 18.777,-23.64c10.994,-2.556 22.299,2.806 27.277,12.937l10.434,21.233l6.667,-0l10.433,-21.233c4.978,-10.131 16.283,-15.493 27.278,-12.937c10.994,2.555 18.776,12.353 18.776,23.64l0,43.53Z" style="fill:#fff;"/><path d="M882.974,218.445l0.012,-160.706l71.981,-0l36.307,47.306l38.498,-47.669l70.886,-0.999l-1.384,162.068l-72.6,0l0,-67.8l-17.1,34.8l-36.9,0l-17.1,-34.8l0,67.8l-72.6,0Z" style="fill:#9b0000;fill-rule:nonzero;"/><path d="M749.963,206.716l-7.826,20.417c-3.598,9.386 -12.61,15.583 -22.663,15.583l-75.6,0c-8.307,0 -16.037,-4.248 -20.489,-11.261c-4.453,-7.013 -5.01,-15.815 -1.476,-23.333l75.347,-160.313c3.982,-8.473 12.483,-13.9 21.845,-13.947l78.933,-0.394c9.709,-0.048 18.513,5.694 22.382,14.599l69.819,160.707c3.259,7.503 2.521,16.142 -1.965,22.982c-4.486,6.84 -12.116,10.96 -20.296,10.96l-75.6,0c-10.052,0 -19.064,-6.197 -22.663,-15.583l-7.826,-20.417l-11.922,0Zm59.1,-12.541l21.904,-0l-48.696,-112.086l-6.621,0.033c1.067,1.515 1.966,3.17 2.672,4.941l14.7,36.9c2.978,7.476 2.057,15.943 -2.459,22.603c-4.517,6.661 -12.041,10.65 -20.089,10.65l-29.4,0c-8.047,0 -15.572,-3.989 -20.088,-10.65c-4.516,-6.66 -5.438,-15.127 -2.459,-22.603l14.7,-36.9c0.675,-1.694 1.526,-3.281 2.533,-4.742l-1.092,0.006l-52.568,111.848l20.685,-0l7.826,-20.417c3.599,-9.386 12.611,-15.583 22.663,-15.583l45.3,-0c10.053,-0 19.065,6.197 22.663,15.583l7.826,20.417Z" style="fill:#fff;"/><path d="M643.874,218.445l75.348,-160.312l78.933,-0.394l69.819,160.706l-75.6,0l-13.8,-36l-45.3,0l-13.8,36l-75.6,0Zm97.2,-85.5l29.4,0l-14.7,-36.9l-14.7,36.9Z" style="fill:#9b0000;fill-rule:nonzero;"/><path d="M498.926,108.916l-19.152,0c-12.682,0 -23.226,-9.763 -24.199,-22.408l-2.614,-33.958c-0.528,-6.862 1.882,-13.625 6.629,-18.607c4.748,-4.981 11.387,-7.714 18.266,-7.517l166.713,4.777c7.005,0.201 13.582,3.419 18.038,8.828c4.456,5.409 6.356,12.48 5.213,19.394l-1.8,10.881c-0.612,3.696 -2.07,7.201 -4.262,10.239l-42.149,58.43l24.265,-0c13.405,-0 24.271,10.866 24.271,24.27l0,55.2c0,13.405 -10.866,24.271 -24.271,24.271l-168.3,0c-13.404,0 -24.271,-10.866 -24.271,-24.271l0,-35.7c0,-5.099 1.606,-10.068 4.591,-14.203l43.032,-59.626Zm70.665,-31.3c2.184,7.162 0.94,15.03 -3.536,21.233l-66.21,91.74l0,3.586l119.758,-0l0,-6.659l-47.429,0c-9.112,0 -17.456,-5.103 -21.606,-13.215c-4.151,-8.112 -3.408,-17.865 1.922,-25.255l50.83,-70.463l-33.729,-0.967Z" style="fill:#fff;"/><path d="M475.574,218.445l0,-35.7l70.8,-98.1l-66.6,0l-2.613,-33.958l166.713,4.777l-1.8,10.881l-69.9,96.9l71.7,0l0,55.2l-168.3,0Z" style="fill:#9b0000;fill-rule:nonzero;"/><path d="M327.626,108.916l-19.152,0c-13.303,0 -24.126,-10.708 -24.269,-24.01l-0.444,-41.32c-0.07,-6.586 2.538,-12.917 7.228,-17.542c4.689,-4.624 11.057,-7.144 17.641,-6.982c-0,0 142.765,3.635 170.343,7.536c7.959,1.126 13.262,4.982 17.008,9.842c3.025,3.924 5.194,8.953 5.43,15.202c0.152,4.005 -0.801,9.729 -3.336,15.506c-2.689,6.131 -7.267,12.899 -7.267,12.899c-0.115,0.167 -0.231,0.333 -0.35,0.498l-42.149,58.43l24.265,-0c13.405,-0 24.271,10.866 24.271,24.27l0,55.2c0,13.405 -10.866,24.271 -24.271,24.271l-168.3,0c-13.404,0 -24.271,-10.866 -24.271,-24.271l0,-35.7c0,-5.099 1.606,-10.068 4.591,-14.203l43.032,-59.626Zm66.964,-38.679c0.787,1.044 1.485,2.168 2.092,3.355c4.15,8.114 3.406,17.868 -1.927,25.257l-66.21,91.74l0,3.586l119.758,-0l0,-6.659l-47.429,0c-9.112,0 -17.456,-5.103 -21.606,-13.215c-4.151,-8.112 -3.408,-17.865 1.922,-25.255l55.543,-76.997c-12.743,-0.654 -27.386,-1.264 -42.143,-1.812Z" style="fill:#fff;"/><path d="M304.274,218.445l0,-35.7l70.8,-98.1l-66.6,0l-0.443,-41.319c-0,-0 140.419,3.467 167.543,7.304c5.424,0.767 -4.8,15.715 -4.8,15.715l-69.9,96.9l71.7,0l0,55.2l-168.3,0Z" style="fill:#9b0000;fill-rule:nonzero;"/><path d="M192.404,218.584c0.076,13.35 10.92,24.132 24.27,24.132l72.6,0c13.394,0 24.256,-10.85 24.271,-24.244l0.195,-176.084c0.014,-12.886 -10.044,-23.537 -22.91,-24.26l-73.821,-4.147c-6.687,-0.376 -13.232,2.029 -18.086,6.643c-4.853,4.615 -7.584,11.031 -7.546,17.728l1.027,180.232Zm48.403,-24.409l24.223,-0l0.143,-128.87l-25.108,-1.411l0.742,130.281Z" style="fill:#fff;"/><path d="M216.674,218.445l-1.027,-180.231l73.822,4.147l-0.195,176.084l-72.6,0Z" style="fill:#9b0000;fill-rule:nonzero;"/><path d="M122.745,199.516l0,18.929c0,13.405 -10.866,24.271 -24.271,24.271l-72.6,0c-13.404,0 -24.271,-10.866 -24.271,-24.271l0,-193.2c0,-6.746 2.808,-13.188 7.75,-17.78c4.942,-4.592 11.573,-6.92 18.301,-6.425c-0,-0 80.525,5.92 105.444,7.618c10.069,0.686 21.412,1.369 31.394,2.068c5.545,0.388 16.861,2.065 19.915,2.943c3.871,1.112 6.344,2.679 7.66,3.593c13.077,9.084 22.964,20.836 29.666,35.251c6.738,14.493 10.212,30.489 10.212,48.032c0,18.265 -4.105,34.738 -12.063,49.48c-8.219,15.224 -19.798,27.29 -34.754,36.182c-14.61,8.687 -31.847,13.309 -51.854,13.309l-10.529,0Zm-72.6,-148.16l0,142.819l24.058,-0l0,-18.93c0,-13.404 10.867,-24.27 24.271,-24.27l34.8,-0c10.395,-0 19.455,-1.978 27.046,-6.491c7.245,-4.308 12.865,-10.143 16.847,-17.518c4.242,-7.858 6.236,-16.685 6.236,-26.421c0,-10.056 -1.825,-19.26 -5.687,-27.567c-2.355,-5.066 -5.587,-9.398 -9.695,-12.995c-2.421,-0.338 -5.401,-0.727 -6.92,-0.834c-9.953,-0.697 -21.263,-1.378 -31.302,-2.062c-15.776,-1.074 -53.781,-3.837 -79.654,-5.731Zm24.058,67.189c0,13.405 10.867,24.271 24.271,24.271l17.7,0c13.763,0 23.788,-4.878 30.907,-12.471c6.838,-7.294 11.064,-17.035 11.064,-29.8c0,-13.533 -4.237,-23.289 -10.239,-30.056c-6.888,-7.765 -16.756,-12.814 -30.532,-12.814l-18.9,-0c-13.404,-0 -24.271,10.866 -24.271,24.27l0,36.6Z" style="fill:#fff;"/><path d="M25.874,218.445l0,-193.2c0,0 80.624,5.928 105.574,7.628c10.054,0.685 21.381,1.367 31.348,2.065c4.606,0.322 14.561,1.658 15.424,2.257c9.478,6.585 16.646,15.102 21.504,25.55c5.3,11.4 7.95,24 7.95,37.8c0,14 -3.05,26.65 -9.15,37.95c-6.1,11.3 -14.7,20.25 -25.8,26.85c-11.1,6.6 -24.25,9.9 -39.45,9.9l-34.8,0l0,43.2l-72.6,0Zm72.6,-99.9l17.7,0c5.8,0 10.2,-1.6 13.2,-4.8c3,-3.2 4.5,-7.6 4.5,-13.2c0,-12.4 -5.5,-18.6 -16.5,-18.6l-18.9,0l0,36.6Z" style="fill:#9b0000;fill-rule:nonzero;"/></g></g></svg>