<svg width="110" height="110" viewBox="0 0 110 110" fill="none" xmlns="http://www.w3.org/2000/svg">
<circle cx="55" cy="55" r="54.5" stroke="black"/>
<circle cx="54.9999" cy="55" r="44.2857" stroke="black"/>
<circle r="5.39286" transform="matrix(-0.707107 -0.707107 -0.707107 0.707107 30.3896 66.1117)" stroke="black"/>
<circle r="5.39286" transform="matrix(-0.707107 -0.707107 -0.707107 0.707107 42.9051 82.9766)" stroke="black"/>
<circle r="5.39286" transform="matrix(-0.707107 -0.707107 -0.707107 0.707107 64.1194 82.9766)" stroke="black"/>
<circle r="5.39286" transform="matrix(-0.707107 -0.707107 -0.707107 0.707107 82.9765 66.4766)" stroke="black"/>
<circle r="5.39286" transform="matrix(-0.707107 -0.707107 -0.707107 0.707107 58.6194 54.6909)" stroke="black"/>
<circle r="5.39286" transform="matrix(-0.707107 -0.707107 -0.707107 0.707107 31.9051 42.9052)" stroke="black"/>
<circle r="5.39286" transform="matrix(-0.707107 -0.707107 -0.707107 0.707107 42.9051 26.4052)" stroke="black"/>
<circle r="5.39286" transform="matrix(-0.707107 -0.707107 -0.707107 0.707107 63.3337 31.1195)" stroke="black"/>
<circle r="5.39286" transform="matrix(-0.707107 -0.707107 -0.707107 0.707107 79.8337 42.9052)" stroke="black"/>
</svg>
