<?xml version="1.0" encoding="UTF-8" standalone="no"?><!DOCTYPE svg PUBLIC "-//W3C//DTD SVG 1.1//EN" "http://www.w3.org/Graphics/SVG/1.1/DTD/svg11.dtd"><svg width="100%" height="100%" viewBox="0 0 1538 1959" version="1.1" xmlns="http://www.w3.org/2000/svg" xmlns:xlink="http://www.w3.org/1999/xlink" xml:space="preserve" xmlns:serif="http://www.serif.com/" style="fill-rule:evenodd;clip-rule:evenodd;stroke-linecap:round;stroke-linejoin:round;stroke-miterlimit:1.5;"><g id="pizza-slice"><path d="M712.863,1771.99c-24.151,18.132 -50.244,28.785 -72.769,21.581c-49.616,-15.868 -81.922,-118.374 -81.922,-118.374c-73.62,-239.639 -138.517,-480.329 -218.357,-705.269c-82.101,-231.309 -134.62,-482.594 -204.95,-724.512l1257.31,41.433l-159.227,387.89l-149.488,322.729c3.027,18.838 4.369,49.384 3.263,95.451c-6.843,285.062 -48.415,149.088 -49.002,167.973c-0.417,13.405 -15.881,-64.664 -24.819,-111.097l-0.349,0.753c-13.908,30.792 -27.662,63.215 -41.326,96.532c-0.054,6.674 -0.168,13.734 -0.348,21.203c-6.843,285.062 -48.415,149.088 -49.002,167.973c-0.226,7.245 -4.846,-12.227 -10.457,-38.995c-7.435,18.86 -14.872,37.667 -22.329,56.314c1.635,18.75 2.198,44.71 1.362,79.545c-6.843,285.062 -48.415,149.088 -49.002,167.973c-0.352,11.311 -11.416,-42.501 -20.235,-87.489c-3.617,7.818 -7.246,15.516 -10.889,23.085c0.19,15.85 0.06,33.783 -0.427,53.967c-9.105,377.274 -64.412,197.315 -65.194,222.309c-0.537,17.169 -19.82,-79.04 -31.845,-140.975Z" style="fill:#f9ce6f;"/><clipPath id="_clip1"><path d="M712.863,1771.99c-24.151,18.132 -50.244,28.785 -72.769,21.581c-49.616,-15.868 -81.922,-118.374 -81.922,-118.374c-73.62,-239.639 -138.517,-480.329 -218.357,-705.269c-82.101,-231.309 -134.62,-482.594 -204.95,-724.512l1257.31,41.433l-159.227,387.89l-149.488,322.729c3.027,18.838 4.369,49.384 3.263,95.451c-6.843,285.062 -48.415,149.088 -49.002,167.973c-0.417,13.405 -15.881,-64.664 -24.819,-111.097l-0.349,0.753c-13.908,30.792 -27.662,63.215 -41.326,96.532c-0.054,6.674 -0.168,13.734 -0.348,21.203c-6.843,285.062 -48.415,149.088 -49.002,167.973c-0.226,7.245 -4.846,-12.227 -10.457,-38.995c-7.435,18.86 -14.872,37.667 -22.329,56.314c1.635,18.75 2.198,44.71 1.362,79.545c-6.843,285.062 -48.415,149.088 -49.002,167.973c-0.352,11.311 -11.416,-42.501 -20.235,-87.489c-3.617,7.818 -7.246,15.516 -10.889,23.085c0.19,15.85 0.06,33.783 -0.427,53.967c-9.105,377.274 -64.412,197.315 -65.194,222.309c-0.537,17.169 -19.82,-79.04 -31.845,-140.975Z"/></clipPath><g clip-path="url(#_clip1)"><g><path d="M324.561,357.685c17.47,0 34.508,2.195 49.755,8.905c20.399,8.977 43.429,17.343 54.15,37.602c21.706,41.02 40.578,66.392 41.797,102.109c1.322,38.738 -16.976,69.307 -38.46,100.562c-22.996,33.457 -64.836,48.053 -107.242,48.053c-8.946,0 -17.775,-0.367 -26.205,-2.401c-63.339,-15.28 -98.431,-48.696 -112.356,-93.704c-4.986,-16.117 -6.861,-35.473 -7.142,-52.51c-0.433,-26.278 5.466,-51.481 17.861,-72.406c16.501,-27.858 42.447,-45.019 68.798,-63.321c17.235,-11.97 37.897,-12.889 59.044,-12.889Z" style="fill:#c03e3b;stroke:#000;stroke-width:41.67px;"/><path d="M547.629,733.967c14.663,-0 28.963,1.759 41.759,7.137c17.121,7.195 36.45,13.901 45.448,30.14c18.217,32.879 34.056,53.214 35.08,81.843c1.109,31.049 -14.249,55.551 -32.279,80.603c-19.301,26.817 -54.416,38.517 -90.008,38.517c-7.507,-0 -14.917,-0.295 -21.993,-1.925c-53.16,-12.248 -82.612,-39.031 -94.299,-75.107c-4.185,-12.918 -5.758,-28.432 -5.994,-42.088c-0.364,-21.063 4.587,-41.264 14.99,-58.036c13.849,-22.329 35.626,-36.084 57.742,-50.753c14.464,-9.594 31.806,-10.331 49.554,-10.331Z" style="fill:#c03e3b;stroke:#000;stroke-width:41.67px;"/><path d="M712.781,1198.88c16.018,-0 31.64,1.873 45.62,7.597c18.704,7.659 39.82,14.797 49.65,32.081c19.902,34.998 37.206,56.644 38.323,87.116c1.213,33.051 -15.565,59.131 -35.263,85.797c-21.086,28.545 -59.448,40.998 -98.33,40.998c-8.202,0 -16.297,-0.314 -24.027,-2.049c-58.076,-13.036 -90.251,-41.546 -103.019,-79.945c-4.572,-13.751 -6.291,-30.264 -6.548,-44.801c-0.397,-22.419 5.012,-43.922 16.376,-61.774c15.13,-23.768 38.92,-38.409 63.081,-54.023c15.802,-10.213 34.747,-10.997 54.137,-10.997Z" style="fill:#c03e3b;stroke:#000;stroke-width:41.67px;"/><path d="M839.069,357.685c15.844,0 31.295,1.878 45.122,7.619c18.5,7.68 39.386,14.838 49.108,32.171c19.685,35.095 36.799,56.802 37.905,87.36c1.199,33.143 -15.396,59.296 -34.878,86.037c-20.856,28.625 -58.799,41.113 -97.257,41.113c-8.112,0 -16.119,-0.315 -23.764,-2.055c-57.442,-13.073 -89.265,-41.662 -101.894,-80.169c-4.522,-13.789 -6.222,-30.349 -6.477,-44.926c-0.392,-22.482 4.957,-44.045 16.198,-61.948c14.964,-23.834 38.495,-38.516 62.392,-54.174c15.629,-10.241 34.368,-11.028 53.545,-11.028Z" style="fill:#c03e3b;stroke:#000;stroke-width:41.67px;"/><path d="M1074.23,720.833c14.677,0 28.991,1.766 41.8,7.161c17.138,7.219 36.486,13.947 45.492,30.238c18.236,32.986 34.09,53.389 35.114,82.111c1.111,31.151 -14.262,55.733 -32.31,80.867c-19.32,26.904 -54.47,38.642 -90.096,38.642c-7.515,-0 -14.932,-0.296 -22.015,-1.931c-53.212,-12.288 -82.693,-39.159 -94.391,-75.352c-4.189,-12.961 -5.764,-28.526 -6,-42.226c-0.364,-21.132 4.592,-41.399 15.005,-58.226c13.862,-22.402 35.66,-36.202 57.798,-50.919c14.479,-9.625 31.837,-10.365 49.603,-10.365Z" style="fill:#c03e3b;stroke:#000;stroke-width:41.67px;"/></g></g><path d="M712.863,1771.99c-24.151,18.132 -50.244,28.785 -72.769,21.581c-49.616,-15.868 -81.922,-118.374 -81.922,-118.374c-73.62,-239.639 -138.517,-480.329 -218.357,-705.269c-82.101,-231.309 -134.62,-482.594 -204.95,-724.512l1257.31,41.433l-159.227,387.89l-149.488,322.729c3.027,18.838 4.369,49.384 3.263,95.451c-6.843,285.062 -48.415,149.088 -49.002,167.973c-0.417,13.405 -15.881,-64.664 -24.819,-111.097l-0.349,0.753c-13.908,30.792 -27.662,63.215 -41.326,96.532c-0.054,6.674 -0.168,13.734 -0.348,21.203c-6.843,285.062 -48.415,149.088 -49.002,167.973c-0.226,7.245 -4.846,-12.227 -10.457,-38.995c-7.435,18.86 -14.872,37.667 -22.329,56.314c1.635,18.75 2.198,44.71 1.362,79.545c-6.843,285.062 -48.415,149.088 -49.002,167.973c-0.352,11.311 -11.416,-42.501 -20.235,-87.489c-3.617,7.818 -7.246,15.516 -10.889,23.085c0.19,15.85 0.06,33.783 -0.427,53.967c-9.105,377.274 -64.412,197.315 -65.194,222.309c-0.537,17.169 -19.82,-79.04 -31.845,-140.975Z" style="fill:none;stroke:#000;stroke-width:41.67px;"/><path d="M875.209,56.722c117.178,4.164 373.925,12.425 480.607,41.479c106.683,29.054 169.736,88.876 159.41,115.194c-10.325,26.318 -69.122,110.068 -150.338,110.595c-81.216,0.528 -236.385,-8.262 -301.678,-7.554c-65.293,0.708 -300.277,-1.126 -359.768,-19.567c-59.492,-18.44 -277.516,-20.525 -316.912,-14.874c-39.396,5.651 -208.828,18.912 -255.006,1.22c-46.178,-17.691 -117.134,-48.436 -106.544,-117.868c10.589,-69.433 108.364,-116.277 169.17,-131.57c60.805,-15.293 359.11,-11.496 359.11,-11.496c0,0 204.771,30.277 321.949,34.441Z" style="fill:#a2632e;stroke:#000;stroke-width:41.67px;"/></g></svg>